<mxfile host="app.diagrams.net" modified="2021-03-10T13:06:47.948Z" agent="5.0 (Windows)" etag="MI-CRdw2i75KR1qHVXzY" version="14.4.6" type="github">
  <diagram id="R2lEEEUBdFMjLlhIrx00" name="Page-1">
    <mxGraphModel dx="2062" dy="1133" grid="1" gridSize="10" guides="1" tooltips="1" connect="1" arrows="1" fold="1" page="1" pageScale="1" pageWidth="850" pageHeight="1100" math="0" shadow="0" extFonts="Permanent Marker^https://fonts.googleapis.com/css?family=Permanent+Marker">
      <root>
        <mxCell id="0" />
        <mxCell id="1" parent="0" />
        <mxCell id="5qCQIAPMCXlx0SvaIOYS-1" value="" style="whiteSpace=wrap;html=1;aspect=fixed;" vertex="1" parent="1">
          <mxGeometry x="60" y="80" width="220" height="220" as="geometry" />
        </mxCell>
        <mxCell id="5qCQIAPMCXlx0SvaIOYS-2" value="&lt;ul&gt;&lt;li&gt;file-demo-version-0.doc&lt;br&gt;&lt;/li&gt;&lt;li&gt;file-demo-version-1.doc&lt;/li&gt;&lt;li&gt;file-demo-version-2.doc&lt;/li&gt;&lt;li&gt;file-demo-version-3.doc&lt;/li&gt;&lt;li&gt;file-demo-version-4.doc&lt;/li&gt;&lt;/ul&gt;" style="text;strokeColor=none;fillColor=none;html=1;whiteSpace=wrap;verticalAlign=middle;overflow=hidden;" vertex="1" parent="1">
          <mxGeometry x="70" y="90" width="200" height="190" as="geometry" />
        </mxCell>
        <mxCell id="5qCQIAPMCXlx0SvaIOYS-8" style="edgeStyle=orthogonalEdgeStyle;rounded=0;orthogonalLoop=1;jettySize=auto;html=1;entryX=1;entryY=0.5;entryDx=0;entryDy=0;" edge="1" parent="1" target="5qCQIAPMCXlx0SvaIOYS-6">
          <mxGeometry relative="1" as="geometry">
            <mxPoint x="440" y="515" as="sourcePoint" />
            <Array as="points">
              <mxPoint x="410" y="515" />
              <mxPoint x="410" y="420" />
            </Array>
          </mxGeometry>
        </mxCell>
        <mxCell id="5qCQIAPMCXlx0SvaIOYS-9" value="" style="edgeStyle=orthogonalEdgeStyle;rounded=0;orthogonalLoop=1;jettySize=auto;html=1;startArrow=classic;startFill=1;" edge="1" parent="1" source="5qCQIAPMCXlx0SvaIOYS-3" target="5qCQIAPMCXlx0SvaIOYS-7">
          <mxGeometry relative="1" as="geometry">
            <Array as="points">
              <mxPoint x="410" y="515" />
              <mxPoint x="410" y="610" />
            </Array>
          </mxGeometry>
        </mxCell>
        <mxCell id="5qCQIAPMCXlx0SvaIOYS-3" value="Center Server" style="rounded=0;whiteSpace=wrap;html=1;horizontal=1;verticalAlign=top;" vertex="1" parent="1">
          <mxGeometry x="470" y="360" width="220" height="310" as="geometry" />
        </mxCell>
        <mxCell id="5qCQIAPMCXlx0SvaIOYS-5" value="&lt;ul&gt;&lt;li&gt;file-demo-version-0.doc&lt;br&gt;&lt;/li&gt;&lt;li&gt;file-demo-version-1.doc&lt;/li&gt;&lt;li&gt;file-demo-version-2.doc&lt;/li&gt;&lt;li&gt;file-demo-version-3.doc&lt;/li&gt;&lt;li&gt;file-demo-version-4.doc&lt;/li&gt;&lt;/ul&gt;" style="text;strokeColor=none;fillColor=none;html=1;whiteSpace=wrap;verticalAlign=middle;overflow=hidden;" vertex="1" parent="1">
          <mxGeometry x="480" y="420" width="200" height="190" as="geometry" />
        </mxCell>
        <mxCell id="5qCQIAPMCXlx0SvaIOYS-6" value="USER A" style="rounded=0;whiteSpace=wrap;html=1;verticalAlign=top;" vertex="1" parent="1">
          <mxGeometry x="120" y="360" width="240" height="120" as="geometry" />
        </mxCell>
        <mxCell id="5qCQIAPMCXlx0SvaIOYS-7" value="USER B" style="rounded=0;whiteSpace=wrap;html=1;verticalAlign=top;" vertex="1" parent="1">
          <mxGeometry x="120" y="550" width="240" height="120" as="geometry" />
        </mxCell>
        <mxCell id="5qCQIAPMCXlx0SvaIOYS-12" value="&lt;ul&gt;&lt;li&gt;file-demo-version-0.doc&lt;br&gt;&lt;/li&gt;&lt;li&gt;file-demo-version-1.doc&lt;/li&gt;&lt;li&gt;file-demo-version-2.doc&lt;/li&gt;&lt;li&gt;file-demo-version-3.doc&lt;/li&gt;&lt;li&gt;file-demo-version-4.doc&lt;/li&gt;&lt;/ul&gt;" style="text;strokeColor=none;fillColor=none;html=1;whiteSpace=wrap;verticalAlign=middle;overflow=hidden;" vertex="1" parent="1">
          <mxGeometry x="140" y="330" width="200" height="190" as="geometry" />
        </mxCell>
        <mxCell id="5qCQIAPMCXlx0SvaIOYS-13" value="&lt;ul&gt;&lt;li&gt;file-demo-version-0.doc&lt;br&gt;&lt;/li&gt;&lt;li&gt;file-demo-version-1.doc&lt;/li&gt;&lt;li&gt;file-demo-version-2.doc&lt;/li&gt;&lt;li&gt;file-demo-version-3.doc&lt;/li&gt;&lt;li&gt;file-demo-version-4.doc&lt;/li&gt;&lt;/ul&gt;" style="text;strokeColor=none;fillColor=none;html=1;whiteSpace=wrap;verticalAlign=middle;overflow=hidden;" vertex="1" parent="1">
          <mxGeometry x="140" y="515" width="200" height="190" as="geometry" />
        </mxCell>
      </root>
    </mxGraphModel>
  </diagram>
</mxfile>
